PathFileType	4	(X/Y/Z)	C:\Users\dbl\Desktop\20210112\20210112\bx_n_0_501-Unnamed.trc
DataRate	CameraRate	NumFrames	NumMarkers	Units	OrigDataRate	OrigDataStartFrame	OrigNumFrames
50.00	50.00	       9	0	mm	50.00	43	       339
Frame#	Time	
		

43	0.840				-690.69708	270.04819	744.32776										-876.12219	-78.89765	141.41621	-659.71350	18.91518	519.66956				-678.82764	154.24155	158.65677							-546.71130	214.13084	165.49551				-693.38428	74.64616	575.79242							-795.74585	180.62268	184.46397	-761.35590	224.01215	204.65924	-589.15918	184.76939	174.26471	-882.48743	296.05096	144.59955	-721.75372	246.36871	575.64642	-640.58508	274.46591	159.26930	-602.44604	274.89792	159.31224	-528.20984	304.20206	146.31906													-794.36658	33.48835	174.80080																			-719.59088	143.34081	217.43648													-517.81085	-72.96118	143.22667	
44	0.860				-691.01617	269.97696	744.17816										-876.14905	-78.79788	141.54057	-660.62634	19.45167	519.28644													-546.63855	214.03342	165.53169				-693.64496	74.87269	575.72437							-795.79816	180.53258	184.46391	-761.51776	223.91751	204.91092	-589.05115	184.54454	174.46568	-882.57312	295.99908	144.56905	-721.87067	246.31331	575.52637	-640.53638	274.48032	159.21155	-602.37830	275.02774	159.50478	-528.20984	304.20206	146.31906													-794.49896	33.35648	174.77301																			-719.48578	143.25285	217.64728													-517.80914	-72.82449	143.06458	
45	0.880				-691.66144	270.09836	744.62677										-876.12219	-78.89765	141.41621	-660.61792	19.51159	519.12091				-678.57422	154.29410	158.60910							-546.77692	214.10699	165.45656				-692.56555	74.43781	575.55273							-795.72003	180.54474	184.50000	-761.35376	223.80322	204.46208	-589.07629	184.68315	174.30763	-882.63922	295.98843	144.54166	-722.10333	246.27922	575.39661	-640.58508	274.46591	159.26930	-602.33783	274.86716	159.38959	-528.28076	304.14819	146.30215													-794.56311	33.64503	174.96129																			-719.32043	143.19331	217.55107													-517.74951	-72.96972	143.14218	
46	0.900				-691.85559	269.89120	744.63641										-876.12219	-78.89765	141.41621	-660.76959	19.38017	519.21613				-678.96869	154.47113	158.52850							-546.70087	214.21989	165.34016				-692.72308	74.62038	575.46368							-795.79816	180.53258	184.46391	-761.46869	224.06549	204.58650	-589.28436	184.46332	174.24863	-882.69641	295.99887	144.54427	-722.22839	245.94704	575.39081	-640.60620	274.46536	159.44821	-602.23157	275.01941	159.54578	-528.15417	304.13843	146.18021													-794.49896	33.35648	174.77301																			-719.45422	143.21941	217.63297													-517.82312	-72.74570	142.93275	
47	0.920				-692.63965	269.73740	744.60968										-876.12219	-78.89765	141.41621	-660.91229	19.34839	519.20117				-678.82764	154.24155	158.65677							-546.79071	214.17738	165.57211				-692.76514	74.73885	575.67639							-795.88800	180.52383	184.41405	-761.40326	223.99527	204.42097	-589.26721	184.38972	174.32945	-882.65430	296.16803	144.63956	-723.05164	246.07184	575.53082	-640.80322	274.54990	159.38300	-602.33014	274.91199	159.51752	-528.27087	304.22754	146.42125													-793.79871	32.93184	174.29492																			-719.79254	143.30026	217.71178													-517.88635	-72.87172	143.24289	
48	0.940				-693.37256	269.24615	744.32050										-876.31458	-78.92422	141.43286	-661.06738	19.33638	519.33789				-678.82764	154.24155	158.65677							-546.89905	214.28336	165.47023				-693.38782	74.86274	576.04694							-795.80988	180.53600	184.45013	-761.44556	223.91451	204.35608	-589.06750	184.67661	174.41991	-882.64764	295.84735	144.41110	-723.47913	246.13077	575.56097	-640.55780	274.59814	159.51624	-602.44427	274.89609	159.35075	-528.29083	304.32431	146.31367													-793.77649	33.07139	174.32559																			-719.62781	143.20920	217.67616													-517.83282	-72.87903	143.14296	
49	0.960				-694.13031	269.47647	744.34052										-876.12219	-78.89765	141.41621	-661.15015	19.26585	519.39117				-678.57422	154.29410	158.60910							-546.84406	214.09296	165.46704				-694.06128	74.40542	575.79626							-795.88800	180.52383	184.41405	-761.55743	224.03763	204.69490	-589.16119	184.79182	174.40720	-882.79480	296.08548	144.51094	-723.75122	245.96906	575.57153	-640.48676	274.36612	159.33282	-602.24493	274.67892	159.37187	-528.20984	304.20206	146.31906													-793.79346	33.08127	174.45857																			-719.61560	143.28252	217.73302													-517.78680	-72.81895	143.17857	
50	0.980				-694.79688	269.32098	744.27643										-876.12219	-78.89765	141.41621	-660.83612	18.82147	519.43512				-678.82764	154.24155	158.65677							-546.91888	214.34274	165.48398				-694.19562	74.53905	575.63525							-795.80463	180.60367	184.26506	-761.44556	223.91451	204.35608	-589.11938	184.63489	174.32146	-882.59491	296.21002	144.62416	-724.28259	245.77660	575.32977	-640.53638	274.48032	159.21155	-602.51660	274.88803	159.41031	-528.22827	304.14267	146.12067													-793.78680	33.00082	174.33832																			-719.45422	143.21941	217.63297													-517.83282	-72.87903	143.14296	
51	1.000				-695.66028	269.76096	744.71021										-876.12219	-78.89765	141.41621	-661.48987	18.66848	519.45093				-678.63599	154.05452	158.91254							-546.96625	214.17833	165.52815													-795.88800	180.52383	184.41405	-761.67444	223.85916	204.70193	-589.54248	184.67151	174.27402	-882.53406	296.09598	144.57982	-725.09619	245.94167	575.59320	-640.58508	274.46591	159.26930	-602.33026	274.55505	159.21382	-528.29919	304.08884	146.10376										-695.04907	73.65978	574.96313	-793.73914	32.89715	174.30406																			-719.61560	143.28252	217.73302													-517.83282	-72.87903	143.14296	
